HIERARCHY
ROOT Hips
{
	OFFSET 0.00000 0.00000 0.00000
	CHANNELS 6 Xposition Yposition Zposition Zrotation Yrotation Xrotation 
	JOINT LHipJoint
	{
		OFFSET 0 0 0
		CHANNELS 3 Zrotation Yrotation Xrotation
		JOINT LeftUpLeg
		{
			OFFSET 1.84395 -1.68683 0.74144
			CHANNELS 3 Zrotation Yrotation Xrotation
			JOINT LeftLeg
			{
				OFFSET 2.27037 -6.23779 0.00000
				CHANNELS 3 Zrotation Yrotation Xrotation
				JOINT LeftFoot
				{
					OFFSET 2.56918 -7.05877 0.00000
					CHANNELS 3 Zrotation Yrotation Xrotation
					JOINT LeftToeBase
					{
						OFFSET 0.22276 -0.61202 1.71784
						CHANNELS 3 Zrotation Yrotation Xrotation
						End Site
						{
							OFFSET 0.00000 -0.00000 0.91613
						}
					}
				}
			}
		}
	}
	JOINT RHipJoint
	{
		OFFSET 0 0 0
		CHANNELS 3 Zrotation Yrotation Xrotation
		JOINT RightUpLeg
		{
			OFFSET -1.76833 -1.68684 0.74144
			CHANNELS 3 Zrotation Yrotation Xrotation
			JOINT RightLeg
			{
				OFFSET -2.49360 -6.85110 0.00000
				CHANNELS 3 Zrotation Yrotation Xrotation
				JOINT RightFoot
				{
					OFFSET -2.55538 -7.02085 0.00000
					CHANNELS 3 Zrotation Yrotation Xrotation
					JOINT RightToeBase
					{
						OFFSET -0.21516 -0.59115 1.68050
						CHANNELS 3 Zrotation Yrotation Xrotation
						End Site
						{
							OFFSET -0.00000 -0.00000 0.89604
						}
					}
				}
			}
		}
	}
	JOINT LowerBack
	{
		OFFSET 0 0 0
		CHANNELS 3 Zrotation Yrotation Xrotation
		JOINT Spine
		{
			OFFSET 0.06382 1.72312 -0.19613
			CHANNELS 3 Zrotation Yrotation Xrotation
			JOINT Spine1
			{
				OFFSET -0.00055 1.73507 0.23859
				CHANNELS 3 Zrotation Yrotation Xrotation
				JOINT Neck
				{
					OFFSET 0 0 0
					CHANNELS 3 Zrotation Yrotation Xrotation
					JOINT Neck1
					{
						OFFSET 0.03638 1.65562 0.09633
						CHANNELS 3 Zrotation Yrotation Xrotation
						JOINT Head
						{
							OFFSET 0.06388 1.62807 -0.32386
							CHANNELS 3 Zrotation Yrotation Xrotation
							End Site
							{
								OFFSET 0.00995 1.67644 -0.12021
							}
						}
					}
				}
				JOINT LeftShoulder
				{
					OFFSET 0 0 0
					CHANNELS 3 Zrotation Yrotation Xrotation
					JOINT LeftArm
					{
						OFFSET 3.09648 1.42991 0.28122
						CHANNELS 3 Zrotation Yrotation Xrotation
						JOINT LeftForeArm
						{
							OFFSET 5.11878 -0.00000 -0.00000
							CHANNELS 3 Zrotation Yrotation Xrotation
							JOINT LeftHand
							{
								OFFSET 3.59971 -0.00000 0.00000
								CHANNELS 3 Zrotation Yrotation Xrotation
								JOINT LeftFingerBase
								{
									OFFSET 0 0 0
									CHANNELS 3 Zrotation Yrotation Xrotation
									JOINT LeftHandIndex1
									{
										OFFSET 0.62877 -0.00000 0.00000
										CHANNELS 3 Zrotation Yrotation Xrotation
										End Site
										{
											OFFSET 0.50693 -0.00000 0.00000
										}
									}
								}
								JOINT LThumb
								{
									OFFSET 0 0 0
									CHANNELS 3 Zrotation Yrotation Xrotation
									End Site
									{
										OFFSET 0.51467 -0.00000 0.51467
									}
								}
							}
						}
					}
				}
				JOINT RightShoulder
				{
					OFFSET 0 0 0
					CHANNELS 3 Zrotation Yrotation Xrotation
					JOINT RightArm
					{
						OFFSET -3.33565 1.14597 0.05047
						CHANNELS 3 Zrotation Yrotation Xrotation
						JOINT RightForeArm
						{
							OFFSET -5.49020 -0.00000 0.00000
							CHANNELS 3 Zrotation Yrotation Xrotation
							JOINT RightHand
							{
								OFFSET -3.20659 -0.00000 -0.00000
								CHANNELS 3 Zrotation Yrotation Xrotation
								JOINT RightFingerBase
								{
									OFFSET 0 0 0
									CHANNELS 3 Zrotation Yrotation Xrotation
									JOINT RightHandIndex1
									{
										OFFSET -0.69188 -0.00000 0.00000
										CHANNELS 3 Zrotation Yrotation Xrotation
										End Site
										{
											OFFSET -0.55781 -0.00000 0.00000
										}
									}
								}
								JOINT RThumb
								{
									OFFSET 0 0 0
									CHANNELS 3 Zrotation Yrotation Xrotation
									End Site
									{
										OFFSET -0.56633 -0.00000 0.56633
									}
								}
							}
						}
					}
				}
			}
		}
	}
}
MOTION
Frames: 8
Frame Time: .0083333
0.6935 17.4299 9.4033 0 0 0 0 0 0 -21 0 0 0 0 0 0 0 0 0 0 0 0 0 0 21 0 0 0 0 0 0 0 0 0 0 0 0 0 0 0 0 0 0 0 0 0 0 -16 0 0 21 0 0 11 0 0 0 -8 0 0 0 0 0 0 0 0 0 0 0 0 0 0 0 0 0 0 0 0 8 0 0 0 0 0 0 0 0 0 0 0 0 0 0 0 0 0
0.6935 17.4299 9.4033 -9.2832 -2.5827 9.9988 0.0000 0.0000 0.0000 -20.5507 -41.4499 26.0717 0.0730 -1.7432 -4.7964 -3.7432 42.8788 -48.6230 1.0444 6.4991 18.2396 0.0000 0.0000 0.0000 28.6592 27.6730 7.5521 -0.0082 -0.5845 1.6063 1.1178 -22.1898 -21.8251 -0.0907 -1.9429 5.3479 7.0406 1.7845 -1.2923 0.3659 2.6652 -8.6288 -3.6886 0.8295 -8.0891 -6.2558 -11.0342 -3.4938 12.5537 -16.5182 14.2332 3.7036 -7.6329 6.4725 0.0000 0.0000 0.0000 -89.2328 4.9480 -29.7289 9.3737 -15.7539 -1.2997 -0.0000 -0.0000 37.4137 17.6848 -13.8529 -4.3656 -7.1250 0.0000 -0.0000 -6.6558 15.5341 4.6622 0.0000 0.0000 0.0000 93.9803 -7.8827 -24.2895 -10.9762 18.2518 -1.7685 0.0000 0.0000 40.5409 8.7911 -30.4606 -4.4828 7.1250 -0.0000 -0.0000 42.1840 -55.2009 -12.1415
0.6957 17.4298 9.4026 -9.4354 -2.5801 10.0203 0.0000 0.0000 0.0000 -20.2686 -41.3364 25.9293 0.0739 -1.7533 -4.8242 -3.8521 42.9284 -48.3640 1.0041 6.3763 17.8801 0.0000 0.0000 0.0000 28.7823 27.5324 7.4468 -0.0084 -0.5929 1.6291 1.1047 -22.0727 -21.7142 -0.0822 -1.8492 5.0891 7.2668 1.8008 -1.2791 0.4842 2.7038 -8.6292 -3.6912 0.8372 -8.0934 -6.6952 -11.0375 -3.5662 12.7090 -16.5246 14.3272 3.8099 -7.6411 6.5657 -0.0000 0.0000 0.0000 -89.4628 4.9203 -29.8442 9.3761 -15.7579 -1.3004 -0.0000 -0.0000 37.4668 17.7161 -13.5568 -4.2824 -7.1250 0.0000 -0.0000 -6.6286 15.8380 4.5992 -0.0000 0.0000 0.0000 93.7771 -7.9356 -24.0948 -10.9913 18.2750 -1.7732 0.0000 0.0000 40.3623 8.8360 -30.4654 -4.5066 7.1250 -0.0000 -0.0000 42.2284 -55.1957 -12.1523
0.6975 17.4290 9.4018 -9.4920 -2.5571 10.0101 0.0000 0.0000 0.0000 -20.0467 -41.1511 25.7291 0.0743 -1.7582 -4.8378 -3.8902 42.8329 -48.0504 0.9873 6.3243 17.7283 0.0000 0.0000 0.0000 28.8325 27.4450 7.4222 -0.0085 -0.5947 1.6343 1.0929 -21.9973 -21.6829 -0.0826 -1.8544 5.1034 7.3946 1.8022 -1.2559 0.5781 2.7176 -8.6116 -3.6639 0.8395 -8.0874 -7.1514 -11.0362 -3.5810 12.9057 -16.5220 14.3481 3.9376 -7.6486 6.6300 0.0000 -0.0000 0.0000 -89.6837 4.8639 -30.1059 9.3700 -15.7482 -1.2987 -0.0000 -0.0000 37.6625 17.7077 -13.6068 -4.2957 -7.1250 0.0000 -0.0000 -6.6353 15.7869 4.6112 0.0000 -0.0000 0.0000 93.5699 -7.9260 -24.0337 -10.9859 18.2666 -1.7715 0.0000 0.0000 40.3157 8.9072 -30.4829 -4.5457 7.1250 -0.0000 -0.0000 42.3074 -55.1950 -12.1810
0.7002 17.4276 9.4010 -9.5681 -2.5296 10.0008 0.0000 0.0000 0.0000 -19.8718 -41.0285 25.6100 0.0745 -1.7604 -4.8438 -3.8820 42.7337 -47.8822 0.9839 6.3138 17.6977 0.0000 0.0000 0.0000 28.8997 27.3443 7.3908 -0.0085 -0.5964 1.6388 1.0729 -21.8825 -21.6610 -0.0869 -1.9016 5.2339 7.5597 1.7975 -1.2191 0.6846 2.7266 -8.5959 -3.6443 0.8368 -8.0920 -7.6373 -11.0365 -3.5963 13.0795 -16.5171 14.3858 4.0630 -7.6575 6.7001 0.0000 -0.0000 0.0000 -89.9070 4.8325 -30.3035 9.3677 -15.7444 -1.2981 -0.0000 -0.0000 37.7799 17.6868 -13.7380 -4.3308 -7.1250 0.0000 -0.0000 -6.6521 15.6530 4.6424 0.0000 -0.0000 0.0000 93.3408 -7.8938 -24.0277 -10.9740 18.2484 -1.7678 0.0000 0.0000 40.3338 9.0553 -30.6026 -4.6385 7.1250 -0.0000 -0.0000 42.5470 -55.2573 -12.3401
0.7043 17.4258 9.3988 -9.7208 -2.5137 10.0323 0.0000 0.0000 0.0000 -19.7699 -41.1417 25.6806 0.0746 -1.7616 -4.8474 -3.9066 42.8411 -48.0120 0.9740 6.2829 17.6074 0.0000 0.0000 0.0000 28.8477 26.7756 6.8883 -0.0106 -0.6649 1.8272 0.9917 -21.2858 -21.3007 -0.0901 -1.9365 5.3302 7.7893 1.7858 -1.2329 0.8454 2.7260 -8.5590 -3.6002 0.8296 -8.0460 -8.1133 -11.0325 -3.7255 13.1545 -16.4915 14.4864 4.1511 -7.6548 6.7984 0.0000 -0.0000 0.0000 -90.1742 4.8437 -29.9539 9.3989 -15.7939 -1.3066 -0.0000 -0.0000 37.4386 17.8172 -13.6460 -4.3361 -7.1250 0.0000 -0.0000 -6.5610 15.7365 4.5661 0.0000 -0.0000 0.0000 92.9696 -7.7181 -24.2944 -10.7941 17.9720 -1.7118 0.0000 0.0000 40.7710 8.8989 -30.4629 -4.5387 7.1250 -0.0000 -0.0000 42.2821 -55.1813 -12.1565
0.7055 17.4263 9.4178 -10.3022 -2.1730 10.2479 0.0000 0.0000 0.0000 -18.9612 -41.2606 25.5446 0.0791 -1.8140 -4.9918 -4.1355 43.0312 -47.6231 0.9091 6.0759 17.0048 0.0000 0.0000 0.0000 29.1771 25.6264 6.0157 -0.0127 -0.7279 2.0005 0.8734 -20.3549 -20.7127 -0.0941 -1.9787 5.4469 8.4987 1.8101 -1.8627 1.1291 2.7249 -8.4406 -3.6675 0.8162 -7.5471 -8.7386 -11.1099 -3.9388 13.3078 -16.5659 14.5316 4.2700 -7.7004 6.9257 0.0000 -0.0000 0.0000 -90.4379 4.7840 -29.0157 9.4122 -15.8148 -1.3102 -0.0000 -0.0000 36.7827 18.0687 -13.5577 -4.3735 -7.1250 0.0000 -0.0000 -6.3866 15.8057 4.4336 0.0000 -0.0000 0.0000 92.4820 -7.3822 -24.9987 -10.4766 17.4815 -1.6152 0.0000 0.0000 41.4761 8.4196 -30.0579 -4.2400 7.1250 -0.0000 -0.0000 41.4954 -54.9636 -11.6294
0.7026 17.4275 9.4269 -10.4346 -2.0756 10.3129 0.0000 0.0000 0.0000 -18.7198 -41.2500 25.4688 0.0812 -1.8380 -5.0582 -4.2132 43.0689 -47.4358 0.8989 6.0424 16.9075 0.0000 0.0000 0.0000 29.2247 25.2200 5.7474 -0.0129 -0.7340 2.0171 0.8397 -20.0510 -20.4802 -0.0984 -2.0225 5.5679 8.5489 1.6896 -2.1004 1.3197 2.5490 -8.4351 -3.4792 0.7383 -7.4328 -8.9945 -11.0061 -3.8734 13.3072 -16.4044 14.5536 4.3312 -7.6387 6.9232 0.0000 0.0000 0.0000 -90.6735 4.8700 -29.2159 9.4516 -15.8772 -1.3209 -0.0000 -0.0000 36.6882 18.1818 -13.4662 -4.3736 -7.1250 0.0000 -0.0000 -6.3069 15.8906 4.3660 0.0000 0.0000 0.0000 92.1436 -7.3462 -24.9342 -10.3015 17.2098 -1.5630 0.0000 0.0000 41.7624 8.1074 -29.9154 -4.0637 7.1250 -0.0000 -0.0000 41.0920 -54.9140 -11.4311
